<?xml version="1.0" encoding="UTF-8" standalone="no"?>
<!DOCTYPE svg PUBLIC "-//W3C//DTD SVG 1.1//EN"
 "http://www.w3.org/Graphics/SVG/1.1/DTD/svg11.dtd">
<!-- Generated by graphviz version 2.40.1 (20161225.0304)
 -->
<!-- Title: G Pages: 1 -->
<svg width="708pt" height="216pt"
 viewBox="0.00 0.00 708.03 216.00" xmlns="http://www.w3.org/2000/svg" xmlns:xlink="http://www.w3.org/1999/xlink">
<g id="graph0" class="graph" transform="scale(1 1) rotate(0) translate(4 212)">
<title>G</title>
<polygon fill="#ffffff" stroke="transparent" points="-4,4 -4,-212 704.0275,-212 704.0275,4 -4,4"/>
<!-- A0 -->
<g id="node1" class="node">
<title>A0</title>
<polygon fill="none" stroke="#000000" points="373.1915,-208 319.1915,-208 319.1915,-172 373.1915,-172 373.1915,-208"/>
<text text-anchor="middle" x="346.1915" y="-187" font-family="Helvetica,sans-Serif" font-size="10.00" fill="#000000">ntkc</text>
</g>
<!-- A1 -->
<g id="node2" class="node">
<title>A1</title>
<polygon fill="none" stroke="#000000" points="338.3656,-122 232.0174,-122 232.0174,-86 338.3656,-86 338.3656,-122"/>
<text text-anchor="middle" x="285.1915" y="-101" font-family="Helvetica,sans-Serif" font-size="10.00" fill="#000000">网络传输组件</text>
</g>
<!-- A0&#45;&gt;A1 -->
<g id="edge1" class="edge">
<title>A0&#45;&gt;A1</title>
<path fill="none" stroke="#000000" d="M327.3256,-163.4021C317.8437,-150.0342 306.5971,-134.1784 298.1094,-122.2121"/>
<polygon fill="none" stroke="#000000" points="324.6147,-165.63 333.255,-171.7616 330.3243,-161.5802 324.6147,-165.63"/>
</g>
<!-- A2 -->
<g id="node3" class="node">
<title>A2</title>
<polygon fill="none" stroke="#000000" points="572.1755,-122 476.2075,-122 476.2075,-86 572.1755,-86 572.1755,-122"/>
<text text-anchor="middle" x="524.1915" y="-101" font-family="Helvetica,sans-Serif" font-size="10.00" fill="#000000">精密定时组件</text>
</g>
<!-- A0&#45;&gt;A2 -->
<g id="edge2" class="edge">
<title>A0&#45;&gt;A2</title>
<path fill="none" stroke="#000000" d="M382.5976,-172.4105C412.9369,-157.7522 455.992,-136.9503 486.6445,-122.1407"/>
<polygon fill="none" stroke="#000000" points="380.7074,-169.4366 373.2259,-176.9385 383.7527,-175.7395 380.7074,-169.4366"/>
</g>
<!-- A9 -->
<g id="node10" class="node">
<title>A9</title>
<polygon fill="none" stroke="#000000" points="214.1626,-122 116.2204,-122 116.2204,-86 214.1626,-86 214.1626,-122"/>
<text text-anchor="middle" x="165.1915" y="-101" font-family="Helvetica,sans-Serif" font-size="10.00" fill="#000000">命令行参数处理</text>
</g>
<!-- A0&#45;&gt;A9 -->
<g id="edge10" class="edge">
<title>A0&#45;&gt;A9</title>
<path fill="none" stroke="#000000" d="M309.9512,-172.7808C279.0095,-158.0793 234.6531,-137.0039 203.2109,-122.0644"/>
<polygon fill="none" stroke="#000000" points="308.5596,-175.9946 319.094,-177.1249 311.5637,-169.672 308.5596,-175.9946"/>
</g>
<!-- A10 -->
<g id="node11" class="node">
<title>A10</title>
<polygon fill="none" stroke="#000000" points="458.6556,-122 355.7274,-122 355.7274,-86 458.6556,-86 458.6556,-122"/>
<text text-anchor="middle" x="407.1915" y="-101" font-family="Helvetica,sans-Serif" font-size="10.00" fill="#000000">延时统计组件</text>
</g>
<!-- A0&#45;&gt;A10 -->
<g id="edge11" class="edge">
<title>A0&#45;&gt;A10</title>
<path fill="none" stroke="#000000" d="M365.0574,-163.4021C374.5393,-150.0342 385.7859,-134.1784 394.2736,-122.2121"/>
<polygon fill="none" stroke="#000000" points="362.0587,-161.5802 359.128,-171.7616 367.7683,-165.63 362.0587,-161.5802"/>
</g>
<!-- A3 -->
<g id="node4" class="node">
<title>A3</title>
<polygon fill="none" stroke="#000000" points="243.1965,-36 115.1865,-36 115.1865,0 243.1965,0 243.1965,-36"/>
<text text-anchor="middle" x="179.1915" y="-15" font-family="Helvetica,sans-Serif" font-size="10.00" fill="#000000">Windows Winsock API</text>
</g>
<!-- A1&#45;&gt;A3 -->
<g id="edge3" class="edge">
<title>A1&#45;&gt;A3</title>
<path fill="none" stroke="#000000" d="M254.9446,-79.4601C237.8769,-65.6127 216.9235,-48.6128 201.3833,-36.0047"/>
<polygon fill="none" stroke="#000000" points="252.9996,-82.3891 262.9704,-85.9716 257.4099,-76.9532 252.9996,-82.3891"/>
</g>
<!-- A4 -->
<g id="node5" class="node">
<title>A4</title>
<polygon fill="none" stroke="#000000" points="365.3286,-36 261.0544,-36 261.0544,0 365.3286,0 365.3286,-36"/>
<text text-anchor="middle" x="313.1915" y="-15" font-family="Helvetica,sans-Serif" font-size="10.00" fill="#000000">Linux Socket API</text>
</g>
<!-- A1&#45;&gt;A4 -->
<g id="edge4" class="edge">
<title>A1&#45;&gt;A4</title>
<path fill="none" stroke="#000000" d="M294.2263,-76.2503C298.4976,-63.1313 303.4773,-47.8366 307.262,-36.2121"/>
<polygon fill="none" stroke="#000000" points="290.8975,-75.1693 291.1296,-85.7616 297.5536,-77.3365 290.8975,-75.1693"/>
</g>
<!-- A5 -->
<g id="node6" class="node">
<title>A5</title>
<polygon fill="none" stroke="#000000" points="552.7055,-36 439.6775,-36 439.6775,0 552.7055,0 552.7055,-36"/>
<text text-anchor="middle" x="496.1915" y="-21" font-family="Helvetica,sans-Serif" font-size="10.00" fill="#000000">HPET Linux Kernel</text>
<text text-anchor="middle" x="496.1915" y="-9" font-family="Helvetica,sans-Serif" font-size="10.00" fill="#000000">Driver</text>
</g>
<!-- A2&#45;&gt;A5 -->
<g id="edge5" class="edge">
<title>A2&#45;&gt;A5</title>
<path fill="none" stroke="#000000" d="M515.1567,-76.2503C510.8854,-63.1313 505.9057,-47.8366 502.121,-36.2121"/>
<polygon fill="none" stroke="#000000" points="511.8294,-77.3365 518.2534,-85.7616 518.4855,-75.1693 511.8294,-77.3365"/>
</g>
<!-- A6 -->
<g id="node7" class="node">
<title>A6</title>
<polygon fill="none" stroke="#000000" points="699.8639,-36 570.5191,-36 570.5191,0 699.8639,0 699.8639,-36"/>
<text text-anchor="middle" x="635.1915" y="-21" font-family="Helvetica,sans-Serif" font-size="10.00" fill="#000000">HPET Windows Kernel</text>
<text text-anchor="middle" x="635.1915" y="-9" font-family="Helvetica,sans-Serif" font-size="10.00" fill="#000000">Driver</text>
</g>
<!-- A2&#45;&gt;A6 -->
<g id="edge6" class="edge">
<title>A2&#45;&gt;A6</title>
<path fill="none" stroke="#000000" d="M555.3787,-79.837C573.3385,-65.9222 595.5317,-48.7274 611.9529,-36.0047"/>
<polygon fill="none" stroke="#000000" points="553.2221,-77.0802 547.4607,-85.9716 557.5094,-82.6137 553.2221,-77.0802"/>
</g>
<!-- A7 -->
<g id="node8" class="node">
<title>A7</title>
<polygon fill="none" stroke="#000000" points="192.1915,-208 138.1915,-208 138.1915,-172 192.1915,-172 192.1915,-208"/>
<text text-anchor="middle" x="165.1915" y="-187" font-family="Helvetica,sans-Serif" font-size="10.00" fill="#000000">ntks</text>
</g>
<!-- A7&#45;&gt;A1 -->
<g id="edge8" class="edge">
<title>A7&#45;&gt;A1</title>
<path fill="none" stroke="#000000" d="M198.6453,-166.0248C218.1071,-152.0772 242.2361,-134.7847 260.0687,-122.0047"/>
<polygon fill="none" stroke="#000000" points="196.4368,-163.3015 190.3474,-171.9716 200.5145,-168.9912 196.4368,-163.3015"/>
</g>
<!-- A8 -->
<g id="node9" class="node">
<title>A8</title>
<polygon fill="none" stroke="#000000" points="98.5752,-122 -.1922,-122 -.1922,-86 98.5752,-86 98.5752,-122"/>
<text text-anchor="middle" x="49.1915" y="-101" font-family="Helvetica,sans-Serif" font-size="10.00" fill="#000000">乱序统计组件</text>
</g>
<!-- A7&#45;&gt;A8 -->
<g id="edge7" class="edge">
<title>A7&#45;&gt;A8</title>
<path fill="none" stroke="#000000" d="M132.5995,-165.837C113.8307,-151.9222 90.6377,-134.7274 73.4769,-122.0047"/>
<polygon fill="none" stroke="#000000" points="130.7565,-168.8276 140.8741,-171.9716 134.9254,-163.2044 130.7565,-168.8276"/>
</g>
<!-- A7&#45;&gt;A9 -->
<g id="edge9" class="edge">
<title>A7&#45;&gt;A9</title>
<path fill="none" stroke="#000000" d="M165.1915,-161.4762C165.1915,-148.5329 165.1915,-133.6086 165.1915,-122.2121"/>
<polygon fill="none" stroke="#000000" points="161.6916,-161.7616 165.1915,-171.7616 168.6916,-161.7616 161.6916,-161.7616"/>
</g>
</g>
</svg>
