<?xml version="1.0" encoding="UTF-8" standalone="no"?>
<!DOCTYPE svg PUBLIC "-//W3C//DTD SVG 1.1//EN"
 "http://www.w3.org/Graphics/SVG/1.1/DTD/svg11.dtd">
<!-- Generated by graphviz version 2.40.1 (20161225.0304)
 -->
<!-- Title: G Pages: 1 -->
<svg width="715pt" height="216pt"
 viewBox="0.00 0.00 714.72 216.00" xmlns="http://www.w3.org/2000/svg" xmlns:xlink="http://www.w3.org/1999/xlink">
<g id="graph0" class="graph" transform="scale(1 1) rotate(0) translate(4 212)">
<title>G</title>
<polygon fill="#ffffff" stroke="transparent" points="-4,4 -4,-212 710.723,-212 710.723,4 -4,4"/>
<!-- A0 -->
<g id="node1" class="node">
<title>A0</title>
<polygon fill="none" stroke="#000000" points="370.887,-208 316.887,-208 316.887,-172 370.887,-172 370.887,-208"/>
<text text-anchor="middle" x="343.887" y="-187" font-family="Helvetica,sans-Serif" font-size="10.00" fill="#000000">ntkc</text>
</g>
<!-- A1 -->
<g id="node2" class="node">
<title>A1</title>
<polygon fill="none" stroke="#000000" points="330.8291,-122 242.9449,-122 242.9449,-86 330.8291,-86 330.8291,-122"/>
<text text-anchor="middle" x="286.887" y="-107" font-family="Helvetica,sans-Serif" font-size="10.00" fill="#000000">Transmission</text>
<text text-anchor="middle" x="286.887" y="-95" font-family="Helvetica,sans-Serif" font-size="10.00" fill="#000000">Control</text>
</g>
<!-- A0&#45;&gt;A1 -->
<g id="edge1" class="edge">
<title>A0&#45;&gt;A1</title>
<path fill="none" stroke="#000000" d="M326.2582,-163.4021C317.398,-150.0342 306.889,-134.1784 298.9578,-122.2121"/>
<polygon fill="none" stroke="#000000" points="323.3567,-165.3598 331.7988,-171.7616 329.1915,-161.4926 323.3567,-165.3598"/>
</g>
<!-- A2 -->
<g id="node3" class="node">
<title>A2</title>
<polygon fill="none" stroke="#000000" points="593.0992,-122 472.6748,-122 472.6748,-86 593.0992,-86 593.0992,-122"/>
<text text-anchor="middle" x="532.887" y="-107" font-family="Helvetica,sans-Serif" font-size="10.00" fill="#000000">High&#45;precision Timer</text>
<text text-anchor="middle" x="532.887" y="-95" font-family="Helvetica,sans-Serif" font-size="10.00" fill="#000000">Controller</text>
</g>
<!-- A0&#45;&gt;A2 -->
<g id="edge2" class="edge">
<title>A0&#45;&gt;A2</title>
<path fill="none" stroke="#000000" d="M380.0689,-173.5363C412.3746,-158.8363 459.61,-137.343 492.998,-122.1505"/>
<polygon fill="none" stroke="#000000" points="378.6185,-170.3509 370.9661,-177.6783 381.5177,-176.7223 378.6185,-170.3509"/>
</g>
<!-- A9 -->
<g id="node10" class="node">
<title>A9</title>
<polygon fill="none" stroke="#000000" points="225.7276,-122 134.0464,-122 134.0464,-86 225.7276,-86 225.7276,-122"/>
<text text-anchor="middle" x="179.887" y="-101" font-family="Helvetica,sans-Serif" font-size="10.00" fill="#000000">CLI Processor</text>
</g>
<!-- A0&#45;&gt;A9 -->
<g id="edge10" class="edge">
<title>A0&#45;&gt;A9</title>
<path fill="none" stroke="#000000" d="M307.8086,-171.0808C280.0141,-156.5057 241.831,-136.4828 214.4293,-122.1136"/>
<polygon fill="none" stroke="#000000" points="306.3241,-174.2544 316.8057,-175.7988 309.575,-168.055 306.3241,-174.2544"/>
</g>
<!-- A10 -->
<g id="node11" class="node">
<title>A10</title>
<polygon fill="none" stroke="#000000" points="454.6842,-122 349.0898,-122 349.0898,-86 454.6842,-86 454.6842,-122"/>
<text text-anchor="middle" x="401.887" y="-101" font-family="Helvetica,sans-Serif" font-size="10.00" fill="#000000">Latency Statistics</text>
</g>
<!-- A0&#45;&gt;A10 -->
<g id="edge11" class="edge">
<title>A0&#45;&gt;A10</title>
<path fill="none" stroke="#000000" d="M361.8251,-163.4021C370.8407,-150.0342 381.5341,-134.1784 389.6044,-122.2121"/>
<polygon fill="none" stroke="#000000" points="358.877,-161.5139 356.1873,-171.7616 364.6805,-165.4279 358.877,-161.5139"/>
</g>
<!-- A3 -->
<g id="node4" class="node">
<title>A3</title>
<polygon fill="none" stroke="#000000" points="246.892,-36 118.882,-36 118.882,0 246.892,0 246.892,-36"/>
<text text-anchor="middle" x="182.887" y="-15" font-family="Helvetica,sans-Serif" font-size="10.00" fill="#000000">Windows Winsock API</text>
</g>
<!-- A1&#45;&gt;A3 -->
<g id="edge3" class="edge">
<title>A1&#45;&gt;A3</title>
<path fill="none" stroke="#000000" d="M257.2108,-79.4601C240.4652,-65.6127 219.9071,-48.6128 204.6601,-36.0047"/>
<polygon fill="none" stroke="#000000" points="255.1483,-82.2962 265.0852,-85.9716 259.6092,-76.9016 255.1483,-82.2962"/>
</g>
<!-- A4 -->
<g id="node5" class="node">
<title>A4</title>
<polygon fill="none" stroke="#000000" points="369.0241,-36 264.7499,-36 264.7499,0 369.0241,0 369.0241,-36"/>
<text text-anchor="middle" x="316.887" y="-15" font-family="Helvetica,sans-Serif" font-size="10.00" fill="#000000">Linux Socket API</text>
</g>
<!-- A1&#45;&gt;A4 -->
<g id="edge4" class="edge">
<title>A1&#45;&gt;A4</title>
<path fill="none" stroke="#000000" d="M296.5671,-76.2503C301.1435,-63.1313 306.4789,-47.8366 310.5339,-36.2121"/>
<polygon fill="none" stroke="#000000" points="293.2383,-75.1668 293.2492,-85.7616 299.8477,-77.4724 293.2383,-75.1668"/>
</g>
<!-- A5 -->
<g id="node6" class="node">
<title>A5</title>
<polygon fill="none" stroke="#000000" points="559.401,-36 446.373,-36 446.373,0 559.401,0 559.401,-36"/>
<text text-anchor="middle" x="502.887" y="-21" font-family="Helvetica,sans-Serif" font-size="10.00" fill="#000000">HPET Linux Kernel</text>
<text text-anchor="middle" x="502.887" y="-9" font-family="Helvetica,sans-Serif" font-size="10.00" fill="#000000">Driver</text>
</g>
<!-- A2&#45;&gt;A5 -->
<g id="edge5" class="edge">
<title>A2&#45;&gt;A5</title>
<path fill="none" stroke="#000000" d="M523.2069,-76.2503C518.6305,-63.1313 513.2951,-47.8366 509.2401,-36.2121"/>
<polygon fill="none" stroke="#000000" points="519.9263,-77.4724 526.5248,-85.7616 526.5357,-75.1668 519.9263,-77.4724"/>
</g>
<!-- A6 -->
<g id="node7" class="node">
<title>A6</title>
<polygon fill="none" stroke="#000000" points="706.5594,-36 577.2146,-36 577.2146,0 706.5594,0 706.5594,-36"/>
<text text-anchor="middle" x="641.887" y="-21" font-family="Helvetica,sans-Serif" font-size="10.00" fill="#000000">HPET Windows Kernel</text>
<text text-anchor="middle" x="641.887" y="-9" font-family="Helvetica,sans-Serif" font-size="10.00" fill="#000000">Driver</text>
</g>
<!-- A2&#45;&gt;A6 -->
<g id="edge6" class="edge">
<title>A2&#45;&gt;A6</title>
<path fill="none" stroke="#000000" d="M563.9899,-79.4601C581.5406,-65.6127 603.0871,-48.6128 619.0671,-36.0047"/>
<polygon fill="none" stroke="#000000" points="561.4197,-77.0297 555.737,-85.9716 565.7556,-82.5252 561.4197,-77.0297"/>
</g>
<!-- A7 -->
<g id="node8" class="node">
<title>A7</title>
<polygon fill="none" stroke="#000000" points="206.887,-208 152.887,-208 152.887,-172 206.887,-172 206.887,-208"/>
<text text-anchor="middle" x="179.887" y="-187" font-family="Helvetica,sans-Serif" font-size="10.00" fill="#000000">ntks</text>
</g>
<!-- A7&#45;&gt;A1 -->
<g id="edge8" class="edge">
<title>A7&#45;&gt;A1</title>
<path fill="none" stroke="#000000" d="M210.4192,-165.4601C227.6479,-151.6127 248.799,-134.6128 264.4858,-122.0047"/>
<polygon fill="none" stroke="#000000" points="207.9195,-162.9788 202.3177,-171.9716 212.3048,-168.4349 207.9195,-162.9788"/>
</g>
<!-- A8 -->
<g id="node9" class="node">
<title>A8</title>
<polygon fill="none" stroke="#000000" points="115.6612,-122 .1128,-122 .1128,-86 115.6612,-86 115.6612,-122"/>
<text text-anchor="middle" x="57.887" y="-107" font-family="Helvetica,sans-Serif" font-size="10.00" fill="#000000">Disordered Delivery</text>
<text text-anchor="middle" x="57.887" y="-95" font-family="Helvetica,sans-Serif" font-size="10.00" fill="#000000">Statistics</text>
</g>
<!-- A7&#45;&gt;A8 -->
<g id="edge7" class="edge">
<title>A7&#45;&gt;A8</title>
<path fill="none" stroke="#000000" d="M145.8757,-166.0248C126.0895,-152.0772 101.5583,-134.7847 83.4285,-122.0047"/>
<polygon fill="none" stroke="#000000" points="144.1218,-169.0707 154.3118,-171.9716 148.155,-163.3493 144.1218,-169.0707"/>
</g>
<!-- A7&#45;&gt;A9 -->
<g id="edge9" class="edge">
<title>A7&#45;&gt;A9</title>
<path fill="none" stroke="#000000" d="M179.887,-161.4762C179.887,-148.5329 179.887,-133.6086 179.887,-122.2121"/>
<polygon fill="none" stroke="#000000" points="176.3871,-161.7616 179.887,-171.7616 183.3871,-161.7616 176.3871,-161.7616"/>
</g>
</g>
</svg>
